<?xml version="1.0" standalone="no"?>
<!DOCTYPE svg PUBLIC "-//W3C//DTD SVG 20010904//EN"
 "http://www.w3.org/TR/2001/REC-SVG-20010904/DTD/svg10.dtd">
<svg version="1.0" xmlns="http://www.w3.org/2000/svg"
 width="348.000000pt" height="348.000000pt" viewBox="0 0 348.000000 348.000000"
 preserveAspectRatio="xMidYMid meet">

<g transform="translate(0.000000,348.000000) scale(0.100000,-0.100000)"
fill="#000000" stroke="none">
<path d="M1517 3465 c-1020 -139 -1700 -1114 -1473 -2110 118 -517 469 -954
953 -1186 262 -126 594 -187 875 -161 242 22 439 77 639 177 555 278 904 796
961 1427 30 329 -57 708 -231 1003 -116 198 -310 411 -486 536 -363 257 -813
371 -1238 314z m-472 -604 c82 -37 143 -123 152 -215 26 -251 -287 -394 -457
-210 -55 60 -73 105 -73 184 0 196 198 322 378 241z m1454 -686 c183 -44 293
-161 347 -370 15 -62 18 -131 21 -597 l4 -528 -230 0 -230 0 -3 457 c-3 401
-6 463 -21 501 -41 105 -100 146 -212 146 -119 0 -184 -41 -234 -144 l-26 -55
-5 -450 -5 -450 -230 0 -230 0 0 735 0 735 223 3 222 2 0 -97 1 -98 21 30 c58
80 164 152 268 181 64 17 242 17 319 -1z m-1339 -755 l0 -740 -227 2 -228 3
-3 738 -2 737 230 0 230 0 0 -740z"/>
</g>
</svg>
